<svg width="19" height="14" viewBox="0 0 19 14" fill="none" xmlns="http://www.w3.org/2000/svg">
<path d="M5.49194 3.78061C4.74318 3.78061 4.11173 3.97012 3.61359 4.24954V1V0.5H3.11359H1.75H1.25V1V12.25V12.75H1.75H3.11359H3.61359V12.25V7.65406C3.61359 6.99975 3.83688 6.60357 4.11558 6.36372C4.40728 6.1127 4.81344 5.98762 5.23825 5.98762C5.68395 5.98762 6.0099 6.11419 6.22464 6.32876C6.43821 6.54217 6.60921 6.91002 6.60921 7.53026V12.25V12.75H7.10921H8.4728H8.9728V12.25V7.34457C8.9728 6.15142 8.57257 5.24156 7.90001 4.63474C7.23669 4.03627 6.36195 3.78061 5.49194 3.78061ZM14.5191 3.78061C13.7704 3.78061 13.1389 3.97012 12.6408 4.24954V1V0.5H12.1408H10.7772H10.2772V1V12.25V12.75H10.7772H12.1408H12.6408V12.25V7.65406C12.6408 6.99975 12.8641 6.60357 13.1428 6.36372C13.4345 6.1127 13.8406 5.98762 14.2654 5.98762C14.7111 5.98762 15.0371 6.11419 15.2518 6.32876C15.4654 6.54217 15.6364 6.91002 15.6364 7.53026V12.25V12.75H16.1364H17.5H18V12.25V7.34457C18 6.15142 17.5998 5.24156 16.9272 4.63474C16.2639 4.03627 15.3892 3.78061 14.5191 3.78061Z" stroke="black"/>
</svg>
