<svg width="18" height="18" viewBox="0 0 18 18" fill="none" xmlns="http://www.w3.org/2000/svg">
<path fill-rule="evenodd" clip-rule="evenodd" d="M5.07139 1.64307C3.17785 1.64307 1.64282 3.17809 1.64282 5.07164V12.9288C1.64282 14.8223 3.17785 16.3574 5.07139 16.3574H12.9285C14.8221 16.3574 16.3571 14.8223 16.3571 12.9288V5.07164C16.3571 3.17809 14.8221 1.64307 12.9285 1.64307H5.07139ZM0.642822 5.07164C0.642822 2.62581 2.62556 0.643066 5.07139 0.643066H12.9285C15.3744 0.643066 17.3571 2.62581 17.3571 5.07164V12.9288C17.3571 15.3746 15.3744 17.3574 12.9285 17.3574H5.07139C2.62556 17.3574 0.642822 15.3746 0.642822 12.9288V5.07164ZM9.42162 6.3518C8.87174 6.27026 8.31016 6.36418 7.81674 6.62021C7.32332 6.87623 6.92319 7.28133 6.67327 7.77787C6.42334 8.27441 6.33635 8.83711 6.42467 9.38594C6.51298 9.93477 6.7721 10.4418 7.16518 10.8349C7.55825 11.2279 8.06526 11.487 8.61409 11.5754C9.16292 11.6637 9.72562 11.5767 10.2222 11.3268C10.7187 11.0768 11.1238 10.6767 11.3798 10.1833C11.6358 9.68987 11.7298 9.12828 11.6482 8.5784C11.5651 8.01751 11.3037 7.49823 10.9027 7.09729C10.5018 6.69634 9.98252 6.43497 9.42162 6.3518ZM7.35617 5.73258C8.03629 5.37968 8.81037 5.25022 9.5683 5.36261C10.3414 5.47726 11.0572 5.83752 11.6098 6.39018C12.1625 6.94284 12.5228 7.6586 12.6374 8.43172C12.7498 9.18966 12.6203 9.96374 12.2674 10.6439C11.9145 11.324 11.3562 11.8755 10.6717 12.22C9.98733 12.5645 9.21171 12.6844 8.45522 12.5627C7.69872 12.4409 6.99987 12.0838 6.45807 11.542C5.91627 11.0002 5.5591 10.3013 5.43737 9.54481C5.31564 8.78831 5.43554 8.0127 5.78003 7.32828C6.12452 6.64386 6.67605 6.08548 7.35617 5.73258ZM13.3214 4.17878C13.0453 4.17878 12.8214 4.40264 12.8214 4.67878C12.8214 4.95492 13.0453 5.17878 13.3214 5.17878H13.3289C13.605 5.17878 13.8289 4.95492 13.8289 4.67878C13.8289 4.40264 13.605 4.17878 13.3289 4.17878H13.3214Z" fill="black"/>
</svg>
